<svg xmlns="http://www.w3.org/2000/svg" xmlns:xlink="http://www.w3.org/1999/xlink" width="375" height="172" xmlns:v="https://vecta.io/nano"><defs><path id="A" d="M0 0h375v172H0z"/></defs><g fill="none" fill-rule="evenodd"><mask id="B" fill="#fff"><use xlink:href="#A"/></mask><use xlink:href="#A" fill="#483eff"/><g mask="url(#B)"><g transform="translate(-151.029 -133.957)"><path fill="#6259ff" d="M79.546 349.634c54.547 128.646 292.524 204.132 354.626 99.852s-95.035-123.204-150.583-230.963S184.878 43.508 104.616 68.057 25 220.987 79.546 349.634z"/><ellipse cx="129.864" cy="258.711" fill="#ffaf7e" rx="96.329" ry="96.373"/><path fill="#f9818e" d="M464.88 433.146c87.31-40.69 133.585-206.525 60.253-246.82s-82.587 68.465-155.485 109.343-118.192 72.245-99.348 126.973 107.27 51.194 194.58 10.504z"/><g stroke="#fff"><path d="M367.336 243.125l15.263-15.549m48.273 23.44l-17.995-15.112m-13.517 35.847l-9.94 21.293" stroke-linecap="round" stroke-linejoin="bevel" stroke-width="5"/></g></g></g></g></svg>